<svg xmlns="http://www.w3.org/2000/svg" viewBox="0 0 100 100">
  <defs>
    <linearGradient id="grad" x1="0%" y1="0%" x2="100%" y2="100%">
      <stop offset="0%" style="stop-color:#0ea5e9;stop-opacity:1" />
      <stop offset="100%" style="stop-color:#3b82f6;stop-opacity:1" />
    </linearGradient>
  </defs>
  <!-- Background circle -->
  <circle cx="50" cy="50" r="48" fill="url(#grad)"/>
  <!-- Brain icon simplified -->
  <path d="M35 30 Q30 25, 30 35 Q30 40, 35 45 Q35 50, 40 50 Q45 50, 50 45 Q55 50, 60 50 Q65 50, 65 45 Q70 40, 70 35 Q70 25, 65 30 Q60 25, 50 25 Q40 25, 35 30 Z" fill="white" opacity="0.95"/>
  <path d="M40 35 Q45 40, 50 35 Q55 40, 60 35" stroke="#0ea5e9" stroke-width="2" fill="none" stroke-linecap="round"/>
  <path d="M45 50 L50 60 L55 50" stroke="white" stroke-width="2.5" fill="none" stroke-linecap="round" stroke-linejoin="round"/>
</svg>
